<svg xmlns="http://www.w3.org/2000/svg" width="420" height="364" viewBox="0 0 420 364" version="1.1">
	<path d="M 142.424 26.250 C 144.318 29.138, 147.453 33.934, 149.389 36.909 L 152.910 42.318 154.705 39.165 C 155.692 37.431, 156.844 36.010, 157.265 36.006 C 157.686 36.003, 161.196 38.302, 165.065 41.117 C 168.934 43.931, 172.248 46.068, 172.428 45.867 C 172.825 45.423, 161.485 28.107, 159.439 26.031 C 158.170 24.744, 157.842 24.959, 156.776 27.781 C 156.108 29.552, 155.313 31, 155.009 31 C 154.706 31, 151.371 28.750, 147.599 26 C 143.827 23.250, 140.344 21, 139.860 21 C 139.376 21, 140.530 23.362, 142.424 26.250 M 190.384 35.913 C 188.120 36.941, 184.970 39.484, 183.384 41.563 C 180.927 44.784, 180.500 46.256, 180.500 51.500 C 180.500 56.744, 180.927 58.216, 183.384 61.437 C 194.999 76.665, 219.093 66.300, 215.582 47.585 C 214.263 40.554, 205.811 34.044, 198 34.044 C 196.075 34.044, 192.648 34.885, 190.384 35.913 M 255.500 36.501 C 254.950 36.689, 249.780 38.275, 244.011 40.025 L 233.522 43.207 236.261 45.391 C 239.698 48.132, 239.696 49.136, 236.250 51.278 C 234.738 52.219, 231.700 54.606, 229.500 56.584 L 225.500 60.180 228.500 59.540 C 233.548 58.462, 248.451 53.794, 249.301 53.023 C 249.742 52.624, 248.955 51.545, 247.551 50.626 C 246.148 49.706, 245 48.547, 245 48.049 C 245 47.551, 248.227 44.637, 252.171 41.572 C 258.356 36.766, 259.411 35.160, 255.500 36.501 M 198 37.911 C 198 38.412, 200.037 39.808, 202.527 41.013 C 205.152 42.284, 207.684 44.422, 208.553 46.102 C 210.046 48.990, 211.426 49.737, 212.389 48.179 C 213.267 46.759, 209.158 41.067, 205.759 38.995 C 202.379 36.934, 198 36.322, 198 37.911 M 209.113 55.652 C 207.405 59.400, 209.303 60.994, 211.493 57.651 C 213.065 55.251, 212.876 53, 211.101 53 C 210.672 53, 209.777 54.193, 209.113 55.652 M 158.894 67.769 C 158.835 68.171, 158.723 69.400, 158.644 70.500 C 158.565 71.600, 158.050 72.445, 157.500 72.377 C 156.950 72.310, 153.800 71.964, 150.500 71.609 L 144.500 70.964 147.729 72.954 C 149.505 74.049, 153.217 76.090, 155.979 77.489 L 161 80.034 161 77.372 L 161 74.711 167.679 75.334 C 171.353 75.678, 173.940 75.589, 173.429 75.138 C 171.453 73.393, 158.994 67.077, 158.894 67.769 M 194.714 74.619 C 194.321 75.012, 194 81.285, 194 88.558 L 194 101.783 191.475 102.417 C 188.510 103.161, 181 109.667, 181 111.491 C 181 112.908, 176.631 114, 170.967 114 C 159.545 114, 124.495 120.635, 113.945 124.795 C 108.660 126.879, 99.769 156.757, 97.974 178.464 C 96.106 201.049, 100.180 228.277, 108.347 247.804 C 111.518 255.386, 111.649 255.533, 117.157 257.726 C 124.525 260.660, 149.684 265.718, 163.500 267.043 C 169.550 267.624, 182.375 268.433, 192 268.841 L 209.500 269.585 197 270.387 C 190.125 270.828, 178.761 270.804, 171.746 270.332 C 163.208 269.758, 159.101 269.810, 159.324 270.487 C 159.890 272.215, 167.139 275.883, 175.500 278.674 C 182.575 281.035, 185.119 281.352, 197.500 281.422 C 209.540 281.489, 212.546 281.171, 218.975 279.153 C 228.245 276.242, 234.479 273.101, 238.914 269.105 C 240.791 267.413, 243.941 265.749, 245.914 265.407 C 258.484 263.227, 274.194 259.519, 278.931 257.615 C 284.372 255.428, 284.536 255.242, 287.674 247.748 C 292.499 236.222, 296.784 217.771, 298.022 203.187 C 299.956 180.400, 296.623 157.271, 288.218 135.162 C 284.120 124.381, 285.503 125.315, 266.465 120.471 C 252.620 116.948, 243.792 115.525, 227.257 114.149 L 217.014 113.297 212.966 108.698 C 210.739 106.169, 207.373 103.541, 205.486 102.859 L 202.054 101.618 201.777 88.059 L 201.500 74.500 198.464 74.203 C 196.794 74.039, 195.107 74.227, 194.714 74.619 M 165.500 135.109 C 156.214 135.974, 139.903 138.966, 132 141.253 C 127.593 142.529, 127.453 142.699, 125.206 149.528 C 121.068 162.102, 119.918 169.276, 119.356 186 C 118.935 198.514, 119.184 204.833, 120.387 212.156 C 121.886 221.281, 126.410 237.661, 127.860 239.213 C 129.119 240.560, 158.509 245.878, 170.500 246.928 C 186.053 248.291, 209.966 248.284, 225.328 246.914 C 237.562 245.823, 266.906 240.543, 268.130 239.213 C 269.542 237.679, 274.042 221.011, 275.478 212 C 278.549 192.727, 276.772 167.658, 271.147 150.918 C 268.348 142.590, 268.304 142.531, 263.916 141.213 C 256.044 138.848, 240.770 136.161, 229 135.072 C 215.798 133.849, 178.786 133.871, 165.500 135.109 M 154.656 169.133 C 153.642 169.722, 152.180 171.719, 151.406 173.570 C 149.720 177.606, 149.536 191.371, 151.108 195.881 C 153.355 202.325, 162.680 203.765, 166.957 198.328 C 168.732 196.071, 169 194.293, 169 184.788 C 169 174.028, 168.952 173.798, 166.077 170.923 C 162.962 167.808, 158.215 167.064, 154.656 169.133 M 229.923 170.923 C 227.048 173.798, 227 174.028, 227 184.788 C 227 194.293, 227.268 196.071, 229.043 198.328 C 233.320 203.765, 242.645 202.325, 244.892 195.881 C 246.557 191.105, 246.300 176.481, 244.490 172.980 C 241.474 167.148, 234.660 166.186, 229.923 170.923 M 176.577 210.875 C 175.551 212.535, 179.099 220.721, 182.234 223.928 C 187.132 228.938, 190.736 230.430, 198 230.455 C 205.775 230.482, 211.562 227.683, 215.509 221.987 C 217.715 218.804, 220 213.089, 220 210.757 C 220 209.691, 177.237 209.808, 176.577 210.875 M 36 316.526 L 36 322.052 51.250 321.776 L 66.500 321.500 66.802 316.250 L 67.105 311 51.552 311 L 36 311 36 316.526 M 73 332.050 L 73 353.100 78.750 352.800 L 84.500 352.500 84.770 331.750 L 85.041 311 79.020 311 L 73 311 73 332.050 M 92 311.494 C 92 311.765, 95.552 316.348, 99.893 321.677 L 107.785 331.368 99.893 341.011 C 95.552 346.315, 92 351.182, 92 351.827 C 92 352.595, 94.095 353, 98.073 353 C 104.582 353, 104.581 353.001, 112.906 343 L 114.987 340.500 117.743 343.570 C 119.259 345.259, 121.741 348.072, 123.258 349.820 C 125.828 352.784, 126.457 353, 132.508 353 C 136.078 353, 138.983 352.663, 138.962 352.250 C 138.941 351.837, 137.028 349.205, 134.712 346.399 C 132.395 343.593, 124.950 334.481, 118.166 326.149 L 105.833 311 98.916 311 C 95.112 311, 92 311.222, 92 311.494 M 121.750 315.950 C 119.688 318.626, 118 321.081, 118 321.407 C 118 321.733, 120.837 322, 124.304 322 C 131 322, 131.305 321.811, 138.436 313.250 L 140.310 311 132.905 311.043 L 125.500 311.085 121.750 315.950 M 143.198 316.250 L 143.500 321.500 154 321.747 C 168.369 322.086, 169 322.282, 169 326.412 C 169 330.639, 168.085 331, 157.366 331 L 148.895 331 149.198 336.250 C 149.489 341.315, 149.609 341.511, 152.605 341.803 C 154.933 342.029, 156.886 343.468, 160.412 347.553 L 165.115 353 171.391 353 C 174.843 353, 177.947 352.720, 178.289 352.377 C 178.632 352.035, 177.059 349.557, 174.795 346.872 C 172.530 344.186, 170.863 341.866, 171.089 341.715 C 171.315 341.564, 173.167 340.684, 175.205 339.758 C 179.901 337.625, 182.286 333.113, 182.286 326.360 C 182.286 319.943, 179.703 315.141, 174.966 312.752 C 172.149 311.330, 168.824 311.003, 157.198 311.002 L 142.895 311 143.198 316.250 M 189.197 316.226 L 189.500 321.500 206.500 321.500 L 223.500 321.500 223.500 316.500 L 223.500 311.500 206.197 311.226 L 188.894 310.952 189.197 316.226 M 230.198 316.250 L 230.500 321.500 245.255 321.777 L 260.010 322.054 263.005 317.331 C 264.652 314.734, 266 312.247, 266 311.804 C 266 311.362, 257.876 311, 247.948 311 L 229.895 311 230.198 316.250 M 303.349 331.219 C 299.417 342.373, 296.406 351.837, 296.659 352.250 C 297.249 353.214, 306.160 353.201, 307.577 352.235 C 308.169 351.831, 310.847 345.313, 313.527 337.750 C 316.207 330.188, 318.671 324, 319.003 324 C 319.335 324, 320.655 327.262, 321.936 331.250 C 323.217 335.238, 324.468 339.033, 324.715 339.685 C 325.001 340.440, 323.778 340.984, 321.339 341.185 C 317.240 341.523, 315.647 343.513, 314.371 349.894 L 313.750 353 327.208 353 C 334.610 353, 340.936 352.730, 341.266 352.401 C 341.811 351.856, 335.908 334.311, 329.692 318 L 327.215 311.500 318.857 311.219 L 310.500 310.937 303.349 331.219 M 348.230 331.750 L 348.500 352.500 354 352.500 L 359.500 352.500 359.770 331.750 L 360.041 311 354 311 L 347.959 311 348.230 331.750 M 36.221 339.219 L 36.500 352.500 42 352.500 L 47.500 352.500 47.792 344.750 L 48.084 337 54.594 337 L 61.105 337 60.802 331.750 L 60.500 326.500 48.221 326.219 L 35.942 325.938 36.221 339.219 M 189 331.500 L 189 337.047 206.250 336.774 L 223.500 336.500 223.500 331.500 L 223.500 326.500 206.250 326.226 L 189 325.953 189 331.500 M 243.066 328.250 C 239.188 334.415, 230 351.111, 230 351.994 C 230 352.629, 236.227 353, 246.893 353 C 265.325 353, 265 353.108, 265 347 C 265 341.479, 264.353 341, 256.893 341 C 253.102 341, 250 340.721, 250 340.381 C 250 340.040, 251.575 337.169, 253.500 334 C 255.425 330.831, 257 327.735, 257 327.119 C 257 326.413, 254.691 326, 250.741 326 C 245.335 326, 244.288 326.307, 243.066 328.250 M 189.406 342.386 C 189.113 343.148, 189.015 345.735, 189.187 348.136 L 189.500 352.500 205.925 352.776 C 223.835 353.076, 223.957 353.039, 223.985 347.332 C 224.016 340.862, 224.399 341, 206.362 341 C 193.287 341, 189.829 341.283, 189.406 342.386" stroke="none" fill="#802fca" fill-rule="evenodd"/>
</svg>